<svg width="64" height="64" viewBox="0 0 64 64" fill="none" xmlns="http://www.w3.org/2000/svg">
  <rect x="10" y="6" width="44" height="52" rx="2" fill="#5c6b7a"/>
  <rect x="16" y="12" width="8" height="7" rx="1" fill="#8a9aab"/>
  <rect x="28" y="12" width="8" height="7" rx="1" fill="#8a9aab"/>
  <rect x="40" y="12" width="8" height="7" rx="1" fill="#8a9aab"/>
  <rect x="16" y="22" width="8" height="7" rx="1" fill="#8a9aab"/>
  <rect x="28" y="22" width="8" height="7" rx="1" fill="#8a9aab"/>
  <rect x="40" y="22" width="8" height="7" rx="1" fill="#8a9aab"/>
  <rect x="16" y="32" width="8" height="7" rx="1" fill="#8a9aab"/>
  <rect x="28" y="32" width="8" height="7" rx="1" fill="#8a9aab"/>
  <rect x="40" y="32" width="8" height="7" rx="1" fill="#8a9aab"/>
  <rect x="16" y="42" width="8" height="7" rx="1" fill="#8a9aab"/>
  <rect x="28" y="42" width="8" height="7" rx="1" fill="#8a9aab"/>
  <rect x="40" y="42" width="8" height="7" rx="1" fill="#8a9aab"/>
  <rect x="27" y="50" width="10" height="8" rx="1" fill="#3d4f5f"/>
</svg>
